# xmcd
#
# Track frame offsets: 
#        150
#        13815
#        26117
#        35475
#        60160
#        73320
#        87875
#        102000
#        115392
#        135062
#        148585
#        166060
#        189267
#        204940
#        221925
#        238247
#        258200
#        282047
#
# Disc length: 3944 seconds
#
# Revision: 7
# Processed by: cddbd v1.5.2PL0 Copyright (c) Steve Scherf et al.
# Submitted via: ExactAudioCopy v1.0b4
#
DISCID=f80f6612
DTITLE=John Lee Hooker - Classic (Millenium Edition)
DYEAR=2000
DGENRE=Blues
TTITLE0=One Bourbon, One Scotch, One Beer
TTITLE1=I'm in the Mood
TTITLE2=Think Twice before You Go
TTITLE3=I'm Bad like Jesse James
TTITLE4=Walkin' the Boogie
TTITLE5=Sugar Mama
TTITLE6=Dreamin Blues
TTITLE7=Groung Hog Blues
TTITLE8=Shake it Baby
TTITLE9=It's My Own Fault
TTITLE10=Lonely Boy Boogie (New Boogie)
TTITLE11=It Serves You Right to Suffer
TTITLE12=I Can't Quit You Baby
TTITLE13=House Rent Blues
TTITLE14=Deep Blue Sea
TTITLE15=Nobody Knows
TTITLE16=I Put My Trust in You
TTITLE17=Apologize
EXTD=
EXTT0=
EXTT1=
EXTT2=
EXTT3=
EXTT4=
EXTT5=
EXTT6=
EXTT7=
EXTT8=
EXTT9=
EXTT10=
EXTT11=
EXTT12=
EXTT13=
EXTT14=
EXTT15=
EXTT16=
EXTT17=
PLAYORDER=
